<svg width="1360" height="693" viewBox="0 0 1360 693" fill="none" xmlns="http://www.w3.org/2000/svg">
<g clip-path="url(#clip0_1_13)">
<g opacity="0.1">
<path d="M154.796 591.15C189.847 657.697 219.353 660.787 229.725 654.014C257.029 637.504 277.984 643.219 257.029 570.195C236.074 497.172 208.77 397.478 277.984 334.614C347.198 271.75 427.841 334.614 425.936 253.336C424.031 172.057 348.468 146.657 292.589 163.802C236.709 180.947 -20.4615 386.683 -29.3514 428.593C-38.2413 470.502 110.981 507.966 154.796 591.15Z" stroke="white"/>
<path d="M212.582 930.87C197.342 911.059 168.979 878.166 156.703 864.196C140.52 845.781 120.508 760.692 212.582 724.498C366.707 663.911 331.96 605.12 306.56 549.241C281.161 493.362 233.537 373.984 306.56 356.839C379.584 339.694 400.539 323.819 454.513 396.843C508.487 469.867 396.729 605.12 538.332 615.915C679.935 626.709 655.17 526.381 665.33 415.258C675.49 304.135 567.541 319.374 517.377 307.31C467.213 295.245 454.513 187.932 427.844 146.657C401.174 105.383 323.705 62.8385 283.701 79.3481C243.697 95.8579 239.887 117.448 212.582 146.657C185.277 175.867 129.398 221.586 102.094 250.795C74.7892 280.005 41.7697 304.77 -16.6494 356.839C-75.0685 408.908 -158.252 375.888 -183.652 415.258C-209.051 454.627 -146.187 494.632 -106.183 494.632C-66.1786 494.632 93.8389 515.586 114.794 605.12C135.748 694.653 98.2838 715.608 75.4242 724.498C52.5645 733.388 -16.6494 739.103 -106.183 753.707C-195.717 768.312 -219.211 817.841 -243.976 845.146C-268.74 872.451 -254.771 911.82 -206.511 930.87C-158.252 949.92 -110.628 1018.5 -87.7683 1051.52C-64.9086 1084.54 2.40028 1089.62 41.7697 1122.64C81.1391 1155.66 64.6293 1216.62 114.794 1285.19C164.958 1353.77 258.936 1337.9 317.355 1295.99C375.774 1254.08 452.608 1203.92 454.513 1166.45C456.418 1128.99 396.729 1076.92 348.47 1051.52C300.211 1026.12 277.351 1001.99 258.936 987.384C240.522 972.78 231.632 955.635 212.582 930.87Z" stroke="white"/>
</g>
<g opacity="0.11">
<path d="M963.119 9.85286C989.535 55.0642 1042.28 101.08 1065.35 118.436C1107.26 137.485 1130.12 145.106 1173.94 176.856C1217.75 208.605 1222.19 282.898 1251.4 329.253C1280.61 375.607 1389.2 326.713 1441.27 268.294C1493.34 209.875 1391.1 166.06 1349.19 118.436C1307.28 70.8119 1222.19 -11.1018 1159.33 -92.3805C1096.47 -173.659 1065.35 -159.055 988.519 -127.94C911.685 -96.8254 930.1 -46.6612 963.119 9.85286Z" stroke="white"/>
<path d="M1163.77 101.293C1210.51 116.025 1249.71 154.844 1263.47 172.412C1363.16 172.412 1246.96 101.293 1163.77 -4.75005C1080.59 -110.793 973.91 -103.174 1005.02 -27.6097C1036.14 47.9541 1105.35 82.8785 1163.77 101.293Z" stroke="white"/>
<path d="M1294.58 2.87024C1279.34 -16.9414 1250.98 -49.834 1238.7 -63.8038C1222.52 -82.219 1202.51 -167.308 1294.58 -203.502C1448.71 -264.089 1413.96 -322.88 1388.56 -378.759C1363.16 -434.638 1315.54 -554.016 1388.56 -571.161C1461.58 -588.306 1482.54 -604.181 1536.51 -531.157C1590.49 -458.133 1478.73 -322.88 1620.33 -312.085C1761.93 -301.291 1737.17 -401.619 1747.33 -512.742C1757.49 -623.865 1649.54 -608.626 1599.38 -620.69C1549.21 -632.755 1536.51 -740.068 1509.84 -781.343C1483.17 -822.617 1405.71 -865.161 1365.7 -848.652C1325.7 -832.142 1321.89 -810.552 1294.58 -781.343C1267.28 -752.133 1211.4 -706.414 1184.09 -677.205C1156.79 -647.995 1123.77 -623.23 1065.35 -571.161C1006.93 -519.092 923.748 -552.112 898.348 -512.742C872.949 -473.373 935.813 -433.368 975.817 -433.368C1015.82 -433.368 1175.84 -412.414 1196.79 -322.88C1217.75 -233.347 1180.28 -212.392 1157.42 -203.502C1134.56 -194.612 1065.35 -188.897 975.817 -174.293C886.283 -159.688 862.789 -110.159 838.024 -82.8539C813.26 -55.5493 827.229 -16.1799 875.489 2.87024C923.748 21.9205 971.372 90.4984 994.232 123.518C1017.09 156.538 1084.4 161.617 1123.77 194.637C1163.14 227.656 1146.63 288.616 1196.79 357.195C1246.96 425.773 1340.94 409.899 1399.36 367.989C1457.77 326.08 1534.61 275.916 1536.51 238.451C1538.42 200.987 1478.73 148.918 1430.47 123.518C1382.21 98.1188 1359.35 73.989 1340.94 59.3843C1322.52 44.7795 1313.63 27.6349 1294.58 2.87024Z" stroke="white"/>
</g>
</g>
<defs>
<clipPath id="clip0_1_13">
<rect width="1360" height="693" fill="white"/>
</clipPath>
</defs>
</svg>
