<svg width="1440" height="864" viewBox="0 0 1440 864" fill="none" xmlns="http://www.w3.org/2000/svg">
<g clip-path="url(#clip0_1_28)">
<g opacity="0.11">
<path d="M752.118 566.151C778.534 611.363 831.28 657.378 854.352 674.735C896.261 693.784 919.12 701.405 962.935 733.154C1006.75 764.904 1011.19 839.197 1040.4 885.551C1069.61 931.906 1178.2 883.011 1230.27 824.592C1282.33 766.173 1180.1 722.359 1138.19 674.735C1096.28 627.11 1011.19 545.197 948.33 463.918C885.466 382.639 854.352 397.244 777.518 428.359C700.684 459.473 719.099 509.637 752.118 566.151Z" stroke="white"/>
<path d="M952.772 657.592C999.507 672.324 1038.71 711.143 1052.47 728.711C1152.16 728.711 1035.96 657.592 952.772 551.549C869.588 445.505 762.91 453.125 794.024 528.689C825.139 604.253 894.353 639.177 952.772 657.592Z" stroke="white"/>
<path d="M1025.8 219.449C1060.85 285.996 1090.35 289.086 1100.72 282.313C1128.03 265.803 1148.98 271.518 1128.03 198.494C1107.07 125.47 1079.77 25.777 1148.98 -37.087C1218.2 -99.951 1298.84 -37.087 1296.94 -118.366C1295.03 -199.644 1219.47 -225.044 1163.59 -207.899C1107.71 -190.755 850.538 14.9821 841.649 56.8914C832.759 98.8008 981.981 136.265 1025.8 219.449Z" stroke="white"/>
<path d="M1083.58 559.169C1068.34 539.357 1039.98 506.465 1027.7 492.495C1011.52 474.08 991.508 388.991 1083.58 352.797C1237.71 292.21 1202.96 233.419 1177.56 177.54C1152.16 121.66 1104.54 2.28232 1177.56 -14.8624C1250.58 -32.0071 1271.54 -47.8818 1325.51 25.142C1379.49 98.1658 1267.73 233.419 1409.33 244.214C1550.93 255.008 1526.17 154.68 1536.33 43.5567C1546.49 -67.5665 1438.54 -52.3268 1388.38 -64.3916C1338.21 -76.4564 1325.51 -183.77 1298.84 -225.044C1272.17 -266.318 1194.71 -308.863 1154.7 -292.353C1114.7 -275.843 1110.89 -254.254 1083.58 -225.044C1056.28 -195.834 1000.4 -150.115 973.094 -120.906C945.789 -91.6962 912.77 -66.9315 854.351 -14.8624C795.932 37.2068 712.748 4.18729 687.348 43.5567C661.949 82.9261 724.813 122.93 764.817 122.93C804.821 122.93 964.839 143.885 985.794 233.419C1006.75 322.952 969.284 343.907 946.424 352.797C923.565 361.687 854.351 367.402 764.817 382.006C675.283 396.611 651.789 446.14 627.024 473.445C602.26 500.749 616.229 540.119 664.489 559.169C712.748 578.219 760.372 646.797 783.232 679.817C806.091 712.837 873.4 717.916 912.77 750.935C952.139 783.955 935.629 844.914 985.794 913.493C1035.96 982.072 1129.94 966.198 1188.36 924.288C1246.77 882.379 1323.61 832.215 1325.51 794.75C1327.42 757.286 1267.73 705.217 1219.47 679.817C1171.21 654.418 1148.35 630.288 1129.94 615.683C1111.52 601.078 1102.63 583.934 1083.58 559.169Z" stroke="white"/>
</g>
<g opacity="0.11">
<path d="M480.882 844.151C454.466 889.363 401.72 935.378 378.648 952.735C336.739 971.784 313.88 979.405 270.065 1011.15C226.251 1042.9 221.806 1117.2 192.596 1163.55C163.387 1209.91 54.8037 1161.01 2.73453 1102.59C-49.3347 1044.17 52.8987 1000.36 94.808 952.735C136.717 905.11 221.806 823.197 284.67 741.918C347.534 660.639 378.648 675.244 455.482 706.359C532.316 737.473 513.901 787.637 480.882 844.151Z" stroke="white"/>
<path d="M280.228 935.592C233.493 950.324 194.293 989.143 180.535 1006.71C80.8414 1006.71 197.045 935.592 280.228 829.549C363.412 723.505 470.09 731.125 438.976 806.689C407.861 882.253 338.647 917.177 280.228 935.592Z" stroke="white"/>
<path d="M207.204 497.449C172.153 563.996 142.647 567.086 132.275 560.313C104.971 543.803 84.0163 549.518 104.971 476.494C125.926 403.47 153.23 303.777 84.0163 240.913C14.8023 178.049 -65.8414 240.913 -63.9364 159.634C-62.0314 78.3556 13.5324 52.956 69.4115 70.1007C125.291 87.2454 382.462 292.982 391.351 334.892C400.241 376.801 251.019 414.265 207.204 497.449Z" stroke="white"/>
<path d="M149.418 837.169C164.658 817.357 193.021 784.465 205.297 770.495C221.48 752.08 241.492 666.991 149.418 630.797C-4.70691 570.21 30.0399 511.419 55.4395 455.54C80.8391 399.66 128.463 280.282 55.4395 263.138C-17.5844 245.993 -38.539 230.118 -92.5132 303.142C-146.487 376.166 -34.7291 511.419 -176.332 522.214C-317.935 533.008 -293.17 432.68 -303.33 321.557C-313.49 210.433 -205.541 225.673 -155.377 213.608C-105.213 201.544 -92.5132 94.2303 -65.8436 52.9559C-39.174 11.6816 38.2947 -30.8627 78.2991 -14.353C118.303 2.15674 122.113 23.7465 149.418 52.9559C176.723 82.1655 232.602 127.885 259.906 157.094C287.211 186.304 320.23 211.068 378.649 263.138C437.068 315.207 520.252 282.187 545.652 321.557C571.051 360.926 508.187 400.93 468.183 400.93C428.179 400.93 268.161 421.885 247.206 511.419C226.252 600.952 263.716 621.907 286.576 630.797C309.435 639.687 378.649 645.402 468.183 660.006C557.717 674.611 581.211 724.14 605.976 751.445C630.74 778.749 616.771 818.119 568.511 837.169C520.252 856.219 472.628 924.797 449.768 957.817C426.909 990.837 359.6 995.916 320.23 1028.94C280.861 1061.95 297.371 1122.91 247.206 1191.49C197.042 1260.07 103.064 1244.2 44.6447 1202.29C-13.7744 1160.38 -90.6082 1110.21 -92.5132 1072.75C-94.4182 1035.29 -34.7291 983.217 13.5302 957.817C61.7894 932.418 84.649 908.288 103.064 893.683C121.478 879.078 130.368 861.934 149.418 837.169Z" stroke="white"/>
</g>
</g>
<defs>
<clipPath id="clip0_1_28">
<rect width="1440" height="864" fill="white"/>
</clipPath>
</defs>
</svg>
