<svg width="1315" height="385" viewBox="0 0 1315 385" fill="none" xmlns="http://www.w3.org/2000/svg">
<g clip-path="url(#clip0_1_23)">
<path opacity="0.1" d="M2.35547 81.775C2.88864 79.9978 4.9521 78.6052 6.26253 77.3718C9.09406 74.7069 13.7766 72.4665 16.8674 70.612C27.9938 63.9362 39.0981 57.226 50.7286 51.4488C67.7642 42.9867 85.9145 37.2701 105.055 37.1229C116.186 37.0373 130.153 35.2166 140.591 39.9136C144.137 41.5093 147.21 45.0507 150.576 47.1696C172.343 60.8749 182.788 86.5697 163.661 107.946C151.889 121.104 138.526 128.572 121.614 133.125C117.822 134.146 107.784 137.59 103.691 134.861C98.2808 131.255 94.8046 125.082 92.7761 119.109C88.8445 107.533 90.4644 96.5565 99.2259 87.6046C111.193 75.3769 140.003 62.4522 155.227 75.1392C174.749 91.4079 179.684 119.542 185.367 142.986C188.241 154.841 191.184 166.821 192.995 178.893C194.295 187.555 193.243 197.069 193.243 205.809C193.243 226.009 191.34 246.436 192.375 266.585C193.413 286.782 203.421 310.916 217.864 325.687C229.423 337.509 240.803 343.184 257.369 346.339C280.796 350.801 302.499 349.425 323.479 337.533C332.147 332.619 341.17 327.2 348.472 320.354C364.695 305.145 374.37 285.425 384.504 265.903C397.88 240.134 409.235 214.183 417.373 186.336C423.926 163.908 426.082 140.637 431.574 118.055C436.186 99.0958 444.044 84.8222 461.218 74.209" stroke="white" stroke-width="3" stroke-linecap="round" stroke-dasharray="9 9"/>
<path opacity="0.1" d="M453.342 80.6587C454.192 77.5408 458.079 74.6548 460.536 72.8446C470.388 65.5849 482.457 60.9441 493.529 55.976C519.298 44.4128 544.973 31.8094 571.546 22.1768C583.033 18.0126 594.602 13.205 606.399 10.0214C620.016 6.34717 634.632 5.00796 648.571 3.50967C657.252 2.57657 666.493 1.81717 675.238 2.76547C681.453 3.4394 686.388 6.5554 692.169 8.53304C711.562 15.1674 722.041 32.6826 724.542 52.6891C729.204 89.9892 706.188 124.348 673.192 141.435C655.678 150.505 631.492 155.113 612.291 149.063C602.657 146.028 585.591 137.23 583.081 125.683C580.741 114.92 588.746 104.184 597.841 99.6359C617.314 89.8992 645.424 84.0081 665.44 95.4187C683.922 105.955 691.412 129.16 697.812 148.071C709.349 182.157 716.917 216.424 733.038 248.848C740.554 263.967 748.101 284.997 760.325 297.222" stroke="white" stroke-width="3" stroke-linecap="round" stroke-dasharray="9 9"/>
<path opacity="0.1" d="M772 314.5C794.45 314.5 798 374.5 854.467 383.177C883.397 383.049 915.953 377.23 933.662 351.424C945.778 333.77 946.748 313.903 946.748 293.314C946.748 270.471 942.758 250.302 938.065 228.011C931.838 198.429 920.156 170.923 911.274 142.055C908.061 131.614 904.272 119.674 903.274 108.69C902.729 102.699 905.774 99.0171 906.561 93.31C907.496 86.5288 907.638 82.2369 914.375 79.5422" stroke="white" stroke-width="3" stroke-linecap="round" stroke-dasharray="9 9"/>
<path opacity="0.1" d="M913.258 59.4489C928.214 48.9794 941.999 41.4775 959.46 34.7661C1014.34 13.6714 1076.5 -0.36201 1134.84 14.4246C1180.17 25.9101 1211.95 61.0773 1249.51 86.4882C1260.03 93.603 1272.92 98.5051 1284.99 102.427C1317.17 112.887 1348.04 108.808 1380.99 104.101" stroke="white" stroke-width="3" stroke-linecap="round" stroke-dasharray="9 9"/>
</g>
<defs>
<clipPath id="clip0_1_23">
<rect width="1315" height="385" fill="white"/>
</clipPath>
</defs>
</svg>
